<svg width="30" height="10" viewBox="0 0 30 10" fill="none" xmlns="http://www.w3.org/2000/svg">
<path d="M16.6811 1.84377L14.8643 5.7583H14.6805V1.00031H12.0851V9.00239H14.2371C14.8211 9.00239 15.3402 8.66717 15.5889 8.14811L17.4165 4.24439H17.6004V9.00239H20.1958V1.00031H18.0113C17.449 1.00031 16.9191 1.33553 16.6811 1.84377Z" fill="#319B42"/>
<path d="M6.97243 2.04923L5.90182 5.7583H5.71798L4.63656 2.04923C4.45271 1.42204 3.87956 1.00031 3.2307 1.00031H0.667725V9.00239H3.26315V4.24439H3.44699L4.93935 9.00239H6.66963L8.162 4.24439H8.34584V9.00239H10.9413V1.00031H8.37829C7.72943 1.00031 7.14546 1.42204 6.97243 2.04923Z" fill="#319B42"/>
<path d="M21.3243 4.56739V9.00239H23.9206V6.40629H26.7115C27.9231 6.40629 28.9508 5.63828 29.3294 4.56739H21.3243Z" fill="#319B42"/>
<path d="M26.6357 1.00031H20.859C21.216 2.90411 22.8819 4.24543 24.8832 4.24543H29.3725C29.405 4.07235 29.4266 3.87765 29.4266 3.68294C29.4266 2.1361 28.1826 1.00031 26.6357 1.00031Z" fill="url(#paint0_linear_17_4298)"/>
<defs>
<linearGradient id="paint0_linear_17_4298" x1="20.859" y1="2.62287" x2="29.4266" y2="2.62287" gradientUnits="userSpaceOnUse">
<stop stop-color="#00A3E1"/>
<stop offset="0.3042" stop-color="#009ADD"/>
<stop offset="0.7987" stop-color="#0082D4"/>
<stop offset="1" stop-color="#0076CF"/>
</linearGradient>
</defs>
</svg>
